Coordinates
version=1
nRows=8
nColumns=27
inDegrees=yes

Units are S.I. units (second, meters, Newtons, ...)
If the header above contains a line with 'inDegrees', this indicates whether rotational values are in degrees (yes) or radians (no).

endheader
time	pelvis_rotation	pelvis_tilt	pelvis_list	pelvis_tx	pelvis_ty	pelvis_tz	hip_flexion_r	hip_adduction_r	hip_rotation_r	knee_angle_r	knee_rotation_r	knee_adduction_r	knee_angle_r_beta	ankle_angle_r	subtalar_angle_r	mtp_angle_r	hip_flexion_l	hip_adduction_l	hip_rotation_l	knee_angle_l	knee_rotation_l	knee_adduction_l	knee_angle_l_beta	ankle_angle_l	subtalar_angle_l	mtp_angle_l
      5.38000000	     10.07154312	    -33.60150954	      5.88325699	     -0.04252144	      0.62477075	     -1.15017414	    102.17829966	    -46.53255680	      4.86758904	     83.16547230	      0.00000000	   -703.19081022	      1.45151132	     11.97571677	      0.00000000	      0.00000000	     99.19526541	    -24.73225225	      4.00938821	     76.21291750	      0.00000000	     -9.71719022	      1.33016634	      6.11754874	      0.00000000	      0.00000000
      5.38500000	     10.98637035	    -33.55240109	      5.89032809	     -0.04165446	      0.62695759	     -1.15069034	    101.31460787	    -47.77593557	      3.70797526	     82.79046075	      0.00000000	   -702.90868929	      1.44496613	     11.92975562	      0.00000000	      0.00000000	     99.06901373	    -23.76262694	      4.26945603	     75.85932623	      0.00000000	     -9.86459697	      1.32399501	      6.10211117	      0.00000000	      0.00000000
      5.39000000	     10.92873412	    -33.44064728	      5.84757958	     -0.04121878	      0.62920809	     -1.15088973	    100.66382104	    -47.76446370	      3.24636843	     82.36738676	      0.00000000	   -702.91524445	      1.43758210	     11.83603485	      0.00000000	      0.00000000	     98.59206367	    -23.80816805	      4.06037928	     75.48095004	      0.00000000	     -9.86428917	      1.31739110	      6.03992753	      0.00000000	      0.00000000
      5.39500000	      9.98631590	    -33.28387982	      5.83771310	     -0.04126837	      0.63142998	     -1.15086301	    100.40807037	    -46.62369372	      3.61077313	     81.92197040	      0.00000000	   -703.18592916	      1.42980811	     11.62486927	      0.00000000	      0.00000000	     97.76279211	    -24.75117779	      3.35248539	     75.07810275	      0.00000000	     -9.71379257	      1.31036009	      5.95520332	      0.00000000	      0.00000000
      5.40000000	     10.92660931	    -33.18186057	      5.78907816	     -0.04020782	      0.63350676	     -1.15139032	     99.36256649	    -47.90634455	      2.28893275	     81.56136566	      0.00000000	   -702.83652265	      1.42351437	     11.68098163	      0.00000000	      0.00000000	     97.64130884	    -23.77115279	      3.69174139	     74.75446770	      0.00000000	     -9.86350451	      1.30471159	      5.96205678	      0.00000000	      0.00000000
      5.40500000	     10.85579977	    -33.10781338	      5.80890916	     -0.03972935	      0.63559130	     -1.15160436	     98.87088385	    -47.85626621	      1.97439934	     81.16951068	      0.00000000	   -702.84250587	      1.41667521	     11.56852851	      0.00000000	      0.00000000	     97.18114338	    -23.84700344	      3.41484494	     74.39529477	      0.00000000	     -9.86317657	      1.29844284	      5.90083627	      0.00000000	      0.00000000
      5.41000000	     10.83535411	    -32.99099503	      5.79480310	     -0.03916982	      0.63764879	     -1.15185019	     98.27304041	    -47.88945114	      1.55901698	     80.78179306	      0.00000000	   -702.80773752	      1.40990826	     11.48741560	      0.00000000	      0.00000000	     96.71518510	    -23.85885859	      3.20324052	     74.04484389	      0.00000000	     -9.86317057	      1.29232632	      5.85158461	      0.00000000	      0.00000000
      5.41500000	     10.81344648	    -32.87769908	      5.75511535	     -0.03859167	      0.63966672	     -1.15209534	     97.64667862	    -47.92071542	      1.10632652	     80.38850533	      0.00000000	   -702.78541314	      1.40304410	     11.38296821	      0.00000000	      0.00000000	     96.27076424	    -23.86919329	      3.02706973	     73.70731320	      0.00000000	     -9.86312661	      1.28643530	      5.81559613	      0.00000000	      0.00000000
